<svg version="1" xmlns="http://www.w3.org/2000/svg" width="933.333" height="933.333" viewBox="0 0 700.000000 700.000000"><path d="M348.4 17.3c-2.3 4.4-9 17-12.7 23.7-8.5 15.5-24.9 41.1-36.3 56.7-9.4 12.9-16 21.1-29.8 36.9-10.3 11.8-48.6 49.6-60.6 59.8-5.8 5-10.9 9.5-11.5 10.1-1.5 1.7-29.5 24-44 35-14.8 11.3-21.7 16.9-29.4 24-36.5 33.6-59.1 71-65.6 108.2-2.5 14.5-2.7 36.7-.5 48.3.6 3.6 1.4 7.6 1.6 9 1 5.6 5.8 19.1 10 27.9 11.3 24 30.8 45.4 54.8 60 6.8 4.2 21.4 11.3 26.1 12.7.6.2 3.7 1.3 7 2.4 28 9.8 61.7 11.1 91.5 3.5 6.9-1.8 21.5-6.7 26.6-9 12.9-5.9 19.9-9.4 28-14.1 10.9-6.4 12.6-7.1 12-5.3-.3.8-.7 2.7-1 4.4-.2 1.6-.9 5-1.4 7.5-.6 2.5-1.3 5.6-1.6 7-2.8 14.1-11.8 39.6-20.1 56.5-6.4 13.2-18.4 33.2-22.6 37.5-.8.8-2.7 3.1-4.3 5-5.4 6.6-14.1 15.5-21.1 21.5-3.9 3.3-7.2 6.2-7.5 6.5-.3.3-2.5 1.8-4.9 3.5-6.4 4.4-7.2 6-7.3 16.1 0 4.9 0 9.8.1 11l.1 2.1h251.9l.3-9.5c.2-6.1-.2-10.5-1-12.6-.8-1.9-5-6.1-11.3-11.1-25-19.8-39.7-38.1-55.2-68.5-7.9-15.6-18.1-43.9-20.3-56.5-.3-1.6-.9-4.6-1.4-6.5-.5-1.9-1.2-5.8-1.6-8.5-.3-2.8-.8-5.3-1.1-5.7-.9-1.7 1.4-.6 10.1 4.6 21.9 13 48.6 23.6 66.1 26.1 2.2.3 4.5.8 5.2 1 4.8 1.6 29.1 2.3 40.5 1.2 68.8-6.9 121.1-51.7 135-115.7 3.6-16.8 3-43.7-1.3-61-5.8-23.1-18.2-47.4-35.2-68.8-7.2-9.1-5.9-7.7-17.7-19.7-9.7-10-24.6-22.8-40.5-35-19.4-14.9-27.4-21.2-38.5-30.5-15.2-12.7-15.2-12.6-27.6-23.9-21.2-19.2-53.3-53.1-65.4-69-1.4-1.8-3-3.8-3.5-4.4-3.4-3.8-17.5-23.1-25-34.2-11.3-16.9-20-31.6-29.1-49.2L350 14.1l-1.6 3.2z"/></svg>