<svg xmlns="http://www.w3.org/2000/svg" viewBox="0 0 895 307.32"><defs><style>.cls-1{fill:#fff;}.cls-1,.cls-2{stroke:#dba437;}.cls-2{fill:none;stroke-miterlimit:10;stroke-width:3px;}</style></defs><g id="Layer_2" data-name="Layer 2"><g id="Layer_1-2" data-name="Layer 1"><path class="cls-1" d="M200.61,163l21.19,11.42-9.26,2.85-25.08,46.53,3.08,7.78L169.7,220.38l9-1.79L203.82,172Zm21.83,15.05-7,2.06L190.9,225.69l3,12.45-23.25-12.53-.46-1.81,21.72,11.71-2.48-10,25-46.4,7.75-2.28Z"/><path class="cls-1" d="M279.64,199.81q-6.5.54-9,2.19-3.83,2.58-6.81,9.76l-1.27,3.05-17.19,41.3-7.93-3.3-4.24-52.16-10.6,25.46-.93,2.09-2.25,7a11.3,11.3,0,0,0,1.38,8.71l.24.49q-5.56-4.86-.71-16.53l1.88-4.38,10.68-25.65-.49-6-11.24,27q-5.34,12.84-5.32,17.53t5.51,9.11l2.26,6.06L198.2,241,198,239.4l23.48,9.78-1.36-3.59-21.85-9.1q6.58.33,9.9-2.37T215,223l15.62-37.51-4.07-7.8,23.72,9.88-8.51,1.68L246,243l2.35-5.62-3.69-46,8.42-1.72.52,1.26-7.45,1.51,3.25,42.39,9.12-21.89,1-2.48q3.39-8.16,3.2-11.46t-4.39-8Zm.2,4.15-1.43,1q-4-.66-6.2,1.08t-4.48,7.13l-20.12,48.33-10.08-4.19-.08-1.52,9.42,3.92,19.4-46.6q2.76-6.61,5.55-8.5C273.68,203.4,276.36,203.17,279.84,204Z"/><path class="cls-1" d="M326.93,213.64a34.13,34.13,0,0,0-6.07,6,100,100,0,0,1-6.49,7.88l-.33.23c0-.4-.05-.7-.06-.92a44.7,44.7,0,0,0-.53-6.74,11.86,11.86,0,0,0-1.71-4,15.45,15.45,0,0,0-9-6.81,13.59,13.59,0,0,0-9.52.46,9.48,9.48,0,0,0-5.52,6.33q-2.32,8.21,9.21,14.68l7.7,4.33Q321,244.27,317,258.64a18.07,18.07,0,0,1-9.83,11.77,22.27,22.27,0,0,1-16.46,1.24,54.71,54.71,0,0,1-12-5.22l-5.32-3a26.5,26.5,0,0,0-5.48-2.44,12.49,12.49,0,0,0-6.7.17l-.19-.79a68.37,68.37,0,0,0,13.4-15l.81.49q-1.12,8,2.8,13.66t12.25,8q6.54,1.85,11.26-.09a10.24,10.24,0,0,0,6.16-7.08q1.67-5.91-2.62-11.29-3.09-3.83-14.41-9.54c-5.81-3-9.72-6.21-11.69-9.79s-2.27-7.87-.87-12.85a16.45,16.45,0,0,1,9.08-11q6.9-3.24,15.8-.74A54.26,54.26,0,0,1,315.76,211a23.12,23.12,0,0,0,5,2.46,10.86,10.86,0,0,0,5.7-.19Zm-8.79,31.19a17,17,0,0,1,2.77,15.65,21.24,21.24,0,0,1-11.69,13.78,26.46,26.46,0,0,1-19.42,1.52,41,41,0,0,1-9.23-3.76l-7.28-4.11a25.24,25.24,0,0,0-5.68-2.34,12.2,12.2,0,0,0-5.45-.32l-.18-1.58a12.73,12.73,0,0,1,5.51.28,31.4,31.4,0,0,1,6.45,2.77l7,3.93a41.86,41.86,0,0,0,9.17,3.74,24.77,24.77,0,0,0,18.4-1.54,20.39,20.39,0,0,0,11.12-13.14,19.3,19.3,0,0,0-1.59-14.59Zm-40.41-13.29,1.4,1.4q.8,3.33,8.08,7.45l7.32,4.17q7.46,4.26,9.71,6.45a8.45,8.45,0,0,1,2.56,5.44l-.4.1a14.7,14.7,0,0,0-3.72-5.05,63.45,63.45,0,0,0-9-5.66q-9.87-5.42-13-8.22T277.73,231.54Zm1.65,17.56a17.31,17.31,0,0,0,6.16,15.19l-.11.39Q277.09,259.47,278,249Zm33-26.85q-3.76-7.23-9.93-9a9.33,9.33,0,0,0-6.76.41,7.25,7.25,0,0,0-4,4.79q-1,3.62,2.85,8.82l.32.35-.36.33q-5.64-4.71-4.09-10.18a8.16,8.16,0,0,1,4.48-5.44,10.84,10.84,0,0,1,7.81-.38,15.32,15.32,0,0,1,6.86,3.85,11.23,11.23,0,0,1,3.2,6.31Zm17-5.7-.65.61a72.94,72.94,0,0,0-5.24,5.49q-5.44,6.21-6.12,6.92l-.34.28-1-.82.32-.39q2.32-2.82,6.47-7.25l5.14-5.51.36-.33Z"/><path class="cls-1" d="M391.51,224.39l-10.13,5.72-5.23,32.38a102.21,102.21,0,0,1-2.64,12.75,15.53,15.53,0,0,1-3.32,6Q364.84,287,352.41,285q-13.14-2.13-17.31-9.38-3.35-5.75-1-20.07l5.37-33.29L333.61,215l23.66,3.82-7.89,5.57-5.29,32.78L342.94,265q-1.2,7.47,1.4,11.11t10,4.82q8.12,1.31,11.95-3,3.08-3.46,5.12-16.14l5.44-32.41-6.66-8.43Zm1.16,3.68-7.74,4.57-5,31.13q-2.48,15.28-5.63,19.56-6.43,8.64-20.72,6.33-12.33-2-17.55-9.16l.36.26,1.6,1.29q5.58,4.6,15.26,6.17,13.83,2.22,19.75-5.77,3.16-4.32,5.47-18.56l5.18-32.08,8.46-4.91Zm-33.73-6.16-5.71,4.17-6,37.25-.61,3.45.53,6.62a21.17,21.17,0,0,0,3.62,5.31l0,.47a10.63,10.63,0,0,1-5-5.9q-1.08-3.52,0-10.34l6.07-37.6,6.56-4.6Z"/><path class="cls-1" d="M395.6,230.88A51,51,0,0,1,421.78,225q10.75.47,17.53,5.43t6.47,12.17a14.34,14.34,0,0,1-5,10.23q-4.77,4.35-12.76,6a89.84,89.84,0,0,0,8.71,19.17,61.15,61.15,0,0,0,11.45,14.52l-.77.22a67.24,67.24,0,0,0-15.13,6.68l-.78.47-.18-1.63q-2.42-19.77-7.67-33.67l-.18-.52a36.51,36.51,0,0,1-9.49,2.19l-.41,0-.81,19,8.52,9.92L395,294.14l-.75-1.4,24.15,1-7-8.12.87-20.45,1.07-.11a33.65,33.65,0,0,0,9.79-1.87c-.19-.41-.3-.67-.33-.77l-.44-1.49c0-.11-.11-.31-.23-.63a88.71,88.71,0,0,1-11.95,1.48l-.57.08-1,22.62,5.53,6.29-22.43-1,6.85-5.75.73-17.05-.41,0a50.83,50.83,0,0,0-5.39,1.25l-.41.13-.41-1a30.25,30.25,0,0,1,3.55-1l2.71-.55.41-.08.12-2.64a27.66,27.66,0,0,0-7.52,1l-.57.18a25.52,25.52,0,0,1,1.16-3.25c.07-.13.34-.89.81-2.26,0-.09.09-.25.17-.45,1.52.17,2.7.27,3.54.31a19.26,19.26,0,0,0,2.55,0l1.06-25a31,31,0,0,0-4.72-2.59Zm15.38-.66-1.16,27.34a14.26,14.26,0,0,0,2.8-.13l1.06-25a25.69,25.69,0,0,1,6.73-.48q9.9.42,13.17,7.07a27.09,27.09,0,0,0-6.42-4.47,18.2,18.2,0,0,0-6.75-1.43,21.49,21.49,0,0,0-5.45.38l-1,24,.56-.08q10.06-1.41,15.08-5.13a12.54,12.54,0,0,0,5.29-10,11.68,11.68,0,0,0-4-9.49,16.5,16.5,0,0,0-10.85-4.15A18.65,18.65,0,0,0,411,230.22Zm23.21,31.48a60.67,60.67,0,0,0,10.44,20.93A53.6,53.6,0,0,0,457,294.39a80.14,80.14,0,0,0-22.22,8.51l-.47.28-1-.85a72.35,72.35,0,0,1,21.05-8.46q-14.19-10.37-21.66-32.13l-.26-.87q15.76-5.24,16.29-17.3.21-5-3.55-11a15.4,15.4,0,0,1,4.62,12.09Q449.32,256.3,434.19,261.7Z"/><path class="cls-1" d="M503.19,223.68l-4.74,6.43,10.2,21.34,1.93-1.29-9.21-19.29,4.83-6.63,1.36.44L503,231l8.72,18.26c.37-.34.59-.54.66-.62l1.54-1.56a14.58,14.58,0,0,0,1.78-1.88,35.06,35.06,0,0,0,4.94,10c-1,0-1.7,0-2.14.08q-4.8.42-6.9,2.12l11.3,24,8.1,5.22-25.55,2.21,6.48-6.48L505,268.12a56.64,56.64,0,0,0-7.63,11.42l-1.18-.2a64.38,64.38,0,0,1,7.94-11.85l.36-.54-1.15-2.15a45.07,45.07,0,0,0-9,12.5l-1-1.39q-3-4-7.55-9l-.56-.56q-3.15,9-2.68,14.4a12.08,12.08,0,0,0,1.55,5.29A49.47,49.47,0,0,0,490,293l1.24,1.32-27.32,2.36-1.13-1.28,25.75-2.22-.95-1a33.19,33.19,0,0,1-4.92-5.92,12.65,12.65,0,0,1-1.5-5.2q-.44-5.16,2.87-15.74l-2.42-2.14q-.52,1.68-1.26,4.91l-1.23,5.3a23.31,23.31,0,0,0-.77,7,10.33,10.33,0,0,0,1.37,4.62,25.23,25.23,0,0,0,4.49,4.76l1,.88-25.29,2.19a30.34,30.34,0,0,0,10.59-11.06q3.67-6.69,6.68-20.25l.14-.73c-1.92-1.36-4.58-2.07-8-2.11a36.66,36.66,0,0,0,3.56-9c.51.39.82.64.93.73l2.46,1.93a28.16,28.16,0,0,0,3,2L480,252l-.65-.45q-2.71-2-4.56-3.23l-.48-.31.71-1.19a38.71,38.71,0,0,1,5.51,3.66L485.73,231l-5.86-5.3Zm-13.87,11.65-6.21,21.94a71.39,71.39,0,0,1,7.3,7.22l2.61,3,.56.61a5.19,5.19,0,0,0,.46-.6l.63-.92c.09-.14.26-.38.5-.7a53.3,53.3,0,0,0-9.1-9.16l5-17.66ZM492.1,241l-4.3,15.15a5.87,5.87,0,0,1,.56.57l2.28,2.14a52.33,52.33,0,0,1,4.73,5.3l.58.72a44.4,44.4,0,0,1,4.69-5.86Zm28.22,6.28q1.5,4.46,6.64,12c-.75,0-1.17-.06-1.28-.05h-4.12c-1.87,0-3.23,0-4.07.1l-1,.14,10.38,21.68,12.15,9-29.3,2.53-1.07-1.28,26.86-2.32-9.8-7.26-11.06-23.05a15.7,15.7,0,0,1,3.9-.8,46.9,46.9,0,0,1,6.11-.07l-.7-1.06a44.13,44.13,0,0,1-5.28-10.4Z"/><path class="cls-1" d="M588.09,208.23q-5,4.17-6.12,7-1.65,4.32,0,11.9l.71,3.23L592.31,274l-8.38,1.84-33.4-40.28,5.92,26.93.44,2.25,2.17,7a11.25,11.25,0,0,0,6.13,6.34l.47.26q-7.33-.76-10.06-13.12l-1-4.67-6-27.13-3.83-4.62,6.29,28.57q3,13.59,5.7,17.41t9.73,4.3l5.33,3.67L545,288.68l-1.09-1.16,24.85-5.47-3.18-2.16L542.47,285q5.56-3.51,6.75-7.62t-.79-13l-8.73-39.68-7.81-4,25.1-5.52-6,6.26,34.31,41.54L584,256.92l-29.4-35.55,5.91-6.24,1.15.74-5.24,5.52,27,32.85-5.1-23.16-.57-2.63q-1.9-8.62-4-11.22t-8.2-4Zm2.54,3.29-.57,1.68c-2.41,1.16-3.9,2.64-4.45,4.44s-.42,4.61.42,8.41l11.24,51.13-10.66,2.35-.94-1.2,10-2.19-10.84-49.3q-1.54-7-.34-10.14C585.27,214.6,587.32,212.87,590.63,211.52Z"/><path class="cls-1" d="M640.52,191.69l-.21,1.09a145.16,145.16,0,0,0-2.23,17.67l0,1.25-.74-.12q-3.64-6.9-9.17-9.76a13.63,13.63,0,0,0-11.22-.87q-6.09,2.13-8.31,8.87-2.82,8.42,2.71,24.23,4.76,13.62,12.17,19.69t15.8,3.14a14.48,14.48,0,0,0,9.16-8.23q2.43-5.88.29-14.49-.51-2.07.93-2.58c1.24-.43,2.23.39,3,2.46a26.15,26.15,0,0,1,1.26,10.38q-.78,12.11-14.73,17-12.46,4.35-22.86-1.84t-15.59-21.1q-4.8-13.75-.43-25.72T616,196.82a36.74,36.74,0,0,1,13.15-1.63,18.23,18.23,0,0,0,6.43-.69,8.28,8.28,0,0,0,4.07-3Zm-11,13.15q-5.58-2-9.47-.63-12.42,4.33-4.15,28,3.76,10.8,9.15,17t11.34,6.45l.16.48q-6.06.83-12.07-5.54t-10.05-17.93q-8.65-24.78,5-29.54,4.61-1.6,9.91,1.11Zm27.13,27.48q3.38,12.15-.33,20.41t-14.25,12a26.59,26.59,0,0,1-16.63.26l-.14-.38a27.93,27.93,0,0,0,16.22-1.15q9.5-3.32,13.36-11.49a20.11,20.11,0,0,0,2-8.17,38.48,38.48,0,0,0-1.54-10.43l-.29-1.14Zm-11.82-39.55-.21,1.09A152.24,152.24,0,0,0,641.94,213l-1.51-.17.11-1.39c.43-3.91.86-7.18,1.31-9.81l1.46-8.15.17-1Z"/><path class="cls-1" d="M693,164.31l-.3,1.23a50.46,50.46,0,0,0-.81,16.71l-1.46-1.2q-5.24-4.19-8.89-4.35t-11,3.56q-3.4,1.71-8.06,4.33l10.48,20.88,2.9-1.46-9.27-18.48c2.2-1.36,4.34-2.57,6.43-3.61q5.76-2.89,9.1-3a12.82,12.82,0,0,1,7.25,2.33c-.58-.09-1-.16-1.25-.22a24.63,24.63,0,0,0-7-.79,27.66,27.66,0,0,0-6.72,2.69c-1,.49-2.66,1.41-5.08,2.78l-.94.52L677,203.44l8.35-4.19,1.82-11L697,207.84l-9.66-4.64-12.39,6.21,12.77,25.47,2.91-1.46-11.71-23.33,9.85-4.94,1.78.59-9.9,5,11.11,22.15q9.25-4.64,12.5-7.92a12.3,12.3,0,0,0,3.54-8.24l.33-5.34c0-.23,0-.65,0-1.27a33.36,33.36,0,0,0,6.94,6.52,40.42,40.42,0,0,0,9.29,4.08l-50.88,25.53,4.26-8.73-10.16-20.24a18.74,18.74,0,0,0-5.71,5.82l-1.12-.64a18.09,18.09,0,0,1,6.24-6.36l-1.07-2.14a11.56,11.56,0,0,0-1.13.46,13.83,13.83,0,0,0-6.74,7.64q-1.56-8.31,5.89-12.05l-9.72-19.38-9.63-2Zm36.65,54.05-.31,5.27L679.8,248.49l-1.34-.86,49.7-24.93.11-3.63a39.26,39.26,0,0,1-15.68-8.27l1.72-.19A41.69,41.69,0,0,0,728.58,218ZM691,188.21l10.06,20.06-1.43,0L689.6,188.18Zm5.76-21.81-.11.56q-1.81,10.23-1.14,16.2l-1.25-.57a60,60,0,0,1,1.39-16.83Z"/><path class="cls-2" d="M888.29,73.74C814.68,210.22,645,305.82,447.37,305.82,250.88,305.82,82.18,211.25,7.91,76A50,50,0,1,1,96.58,29.85c54.29,112.71,190.77,192.77,350.79,192.77,160.29,0,297.16-80.25,351.26-193.27l0,0A50,50,0,1,1,888.26,73.8"/><path class="cls-1" d="M768.11,159.25l4.93,6.39L751.84,182a20.25,20.25,0,0,1-2-8.73,29.64,29.64,0,0,1,2.05-10,33.21,33.21,0,0,0,2.07-7.31,11.33,11.33,0,0,0-2.4-8.15,7.53,7.53,0,0,0-5.06-3.19,7.67,7.67,0,0,0-5.73,1.84,7.47,7.47,0,0,0-3,4.49,5.59,5.59,0,0,0,1.12,4.72,5.1,5.1,0,0,0,3.17,2,4.12,4.12,0,0,0,3.41-.82,4.87,4.87,0,0,0,1.74-3.54l.53-.07a5.7,5.7,0,0,1,.6,4.1,6.13,6.13,0,0,1-2.34,3.54,7.53,7.53,0,0,1-5.58,1.7,6.92,6.92,0,0,1-4.9-2.82A8.57,8.57,0,0,1,734,152.2a13.4,13.4,0,0,1,5.18-7.47,14.57,14.57,0,0,1,9.48-3.32,9.64,9.64,0,0,1,7.81,3.76q4.06,5.27-.17,15.09l-2,4.61a19.63,19.63,0,0,0-1.39,10.83c0,.07,0,.16,0,.27l1.46-1.13q-.78-4.64,2-10.88l1.84-4.11a21.41,21.41,0,0,0,2.17-8.58,10.55,10.55,0,0,0-2.28-6.51,11.12,11.12,0,0,0-9.45-4.32v-.29q6.09-1.1,10.11,4.1,4.59,5.94.25,15.78l-1.81,4.12q-2.91,6.6-2,10l7.11-5.49c2.9-2.24,4.69-3.93,5.34-5.06a4.3,4.3,0,0,0,0-4Zm-16.77-11.07c-3.13-2.19-6-2.25-8.73-.18a5.36,5.36,0,0,0-2.08,3.22,3.91,3.91,0,0,0,.73,3.37,3.82,3.82,0,0,0,4.31,1.29l.23.3a3.89,3.89,0,0,1-2.78.34,4.28,4.28,0,0,1-2.41-1.58,4.6,4.6,0,0,1-.89-3.88,6,6,0,0,1,2.38-3.68,7,7,0,0,1,5-1.57A5.83,5.83,0,0,1,751.34,148.18Zm-1.39,5a9.29,9.29,0,0,1,.6,5.29,7.27,7.27,0,0,1-2.82,4,6.45,6.45,0,0,1-6.55,1l.18-.14h.41a11.45,11.45,0,0,0,3.24-.14,6,6,0,0,0,2.24-1.15q4.57-3.51,2-8.63Zm20.55,5.5,5.74,7.43-20.75,16-.88-.3L775.15,166l-5.26-6.82Z"/><path class="cls-1" d="M788.13,101.25c.1.36.18.59.22.72l1,3.83a25.63,25.63,0,0,0,1.9,4.6l.06.15-.35,0-.32-.2a8.5,8.5,0,0,0-4.89-1.58,7.29,7.29,0,0,0-4.24,2.41c-.62.6-1.21,1.24-1.77,1.9l-.25.24,21.92,22.25,4.63-.15-9.38,9.24.51-5.23-20.12-20.42-1.48,1.41c-1.41,1.39-2.14,2.65-2.19,3.8s.56,2.46,1.83,4l-.54.53c-1.42-1.75-2.11-3.27-2.05-4.57s.87-2.71,2.42-4.25l1.26-1.19.22-.23-1-1a23,23,0,0,0-2.11,1.84c-1.77,1.74-2.68,3.35-2.76,4.83s.7,3.13,2.3,4.92l-.25.24a54,54,0,0,0-9-3.67l-.33-.08Zm.24,8.62a9.29,9.29,0,0,0-4.7,2.62,10.4,10.4,0,0,0-.93,1l20.4,20.54,7.07.64L799.72,145l-1-.08,9.83-9.69-5.84-.43-21.07-21.38,1.09-1.11a12.56,12.56,0,0,1,3.13-2.47A3.35,3.35,0,0,1,788.37,109.87Zm2.32-8.6a33.36,33.36,0,0,0,2.93,8.93l.12.28-.83.06-.12-.25q-2.67-5.75-2.89-8.8l0-.22Z"/><path class="cls-1" d="M798.75,88.2A13.54,13.54,0,0,1,810,83.05q6.76.2,13.55,5.91,6.41,5.4,7.56,11.77a13.69,13.69,0,0,1-3.33,11.71,15,15,0,0,1-9,5.23q-8,1.48-15.81-5.06-6.66-5.6-7.8-12.21A14.43,14.43,0,0,1,798.75,88.2Zm1.9,1.59q-6.27,7.45,6.82,18.47,12.1,10.18,18.28,2.84a7.37,7.37,0,0,0,1.17-7.9q-1.71-4.49-7.88-9.68-7-5.88-11.19-6.48A7.53,7.53,0,0,0,800.65,89.79Zm7.27-1.93-.53.19A10.65,10.65,0,0,0,803,90.94q-4.87,5.81,6.52,15.39,8.34,7,14.07,5.7l.05.38a11.13,11.13,0,0,1-6.75-.32,26.77,26.77,0,0,1-7.68-4.85q-12.23-10.3-6.82-16.74A6.38,6.38,0,0,1,807.92,87.86Zm-2.13-5.75a14.19,14.19,0,0,1,9.4-.6,24.51,24.51,0,0,1,10,5.33q7.11,6,8.43,13.25a15.26,15.26,0,0,1-3.6,13.14,14.66,14.66,0,0,1-8.43,4.87l-.11-.09a16,16,0,0,0,11.25-17.75q-1.18-7.07-7.66-12.51a26.81,26.81,0,0,0-9.81-5.49,15.16,15.16,0,0,0-9.27.06Z"/><path class="cls-1" d="M830,46.72l28.39,17.56,4.4-1.41L856.2,73.43l-.62-4.69L834,55.4a7.14,7.14,0,0,1-1,3.32,4.63,4.63,0,0,1-4,2.35l.13-.2a5.92,5.92,0,0,0,3.22-2.47,6.06,6.06,0,0,0,.95-3.45L831.77,54a7.5,7.5,0,0,1-1.19,4.65,4.12,4.12,0,0,1-1.83,1.7,2,2,0,0,1-1.9,0,1.3,1.3,0,0,1-.56-1.94,1,1,0,0,1,1.57-.46,1.53,1.53,0,0,1,.31.26l.16.14c.27.14.53,0,.8-.42a6.07,6.07,0,0,0,.72-4,9.12,9.12,0,0,0-1.71-4.31Zm1.2-1,.72-.46,27.64,17.1,7-1.13-7.76,12.55-1,.13L865,62.28l-5.67.9Z"/><path class="cls-1" d="M47.4,77.64l-7.95,5-14-22.19.38-.85,13.83,22L47,77Zm-.3-2.43-6.83,4.3L26,56.84a20.27,20.27,0,0,1,8.89-1.19,29.39,29.39,0,0,1,9.75,3,32.6,32.6,0,0,0,7.08,2.76,11.43,11.43,0,0,0,8.35-1.61,7.57,7.57,0,0,0,3.65-4.74,7.65,7.65,0,0,0-1.28-5.88,7.47,7.47,0,0,0-4.18-3.37,5.61,5.61,0,0,0-4.81.66,5.18,5.18,0,0,0-2.34,3,4.08,4.08,0,0,0,.5,3.46A4.8,4.8,0,0,0,55,55l0,.53a5.72,5.72,0,0,1-4.14.21A6.1,6.1,0,0,1,47.54,53a7.57,7.57,0,0,1-1.16-5.71,6.92,6.92,0,0,1,3.28-4.6,8.54,8.54,0,0,1,7.72-.8,13.43,13.43,0,0,1,6.94,5.86,14.57,14.57,0,0,1,2.4,9.76A9.64,9.64,0,0,1,62.23,65q-5.62,3.56-15-1.61l-4.39-2.45a19.69,19.69,0,0,0-10.65-2.42h-.27l1,1.56q4.7-.33,10.64,3l3.92,2.23a21.4,21.4,0,0,0,8.33,3,10.53,10.53,0,0,0,6.7-1.65,11.07,11.07,0,0,0,5.2-9l.29,0q.52,6.18-5,9.67-6.36,4-15.74-1.26l-3.93-2.19c-4.18-2.35-7.45-3.33-9.8-2.91l4.79,7.6q2.93,4.66,4.52,5.8a4.29,4.29,0,0,0,4,.37Zm7.74-17.5a9.32,9.32,0,0,1-5.33.09,7.22,7.22,0,0,1-3.7-3.19A6.45,6.45,0,0,1,45.45,48l.13.2,0,.41a11.36,11.36,0,0,0-.18,3.24,6.09,6.09,0,0,0,.93,2.34q3.07,4.88,8.41,2.81Zm4.88,1.86q3.72-4.35,1-8.66a5.39,5.39,0,0,0-3-2.39,3.94,3.94,0,0,0-3.42.4,3.84,3.84,0,0,0-1.7,4.17l-.32.2a3.86,3.86,0,0,1-.07-2.8A4.22,4.22,0,0,1,54,48.25,4.62,4.62,0,0,1,58,47.73a6.05,6.05,0,0,1,3.43,2.72,7,7,0,0,1,1.09,5.09A5.83,5.83,0,0,1,59.72,59.57Z"/><path class="cls-1" d="M94.85,99.48a9.27,9.27,0,0,0-2.25-4.89,9.92,9.92,0,0,0-1-1l-22,18.8-1.17,7-9.52-11.23.17-1L68,117.67l.87-5.8L91.8,92.48l1,1.17A11.93,11.93,0,0,1,95,97,3.3,3.3,0,0,1,94.85,99.48Zm8.62.41-.73.16-3.91.74a25.47,25.47,0,0,0-4.72,1.55l-.15,0,0-.35.23-.31A8.48,8.48,0,0,0,96.09,97,7.33,7.33,0,0,0,94,92.56c-.56-.66-1.15-1.29-1.77-1.91L92,90.39,68.2,110.57l-.2,4.62-8.51-10,5.18.9L86.55,87.52l-1.3-1.58q-1.92-2.26-3.62-2.46c-1.13-.14-2.5.37-4.09,1.52l-.49-.57q2.78-1.94,4.71-1.71t4.06,2.74l1.09,1.34.21.24,1.07-.91a24.34,24.34,0,0,0-1.67-2.25C84.92,82,83.38,81,81.9,80.77s-3.16.46-5.07,1.92l-.22-.26A54.11,54.11,0,0,0,81,73.73l.1-.32Zm-.22,2.55a33.06,33.06,0,0,0-9.12,2.25l-.29.1V104l.25-.1q5.93-2.22,9-2.22h.22Z"/><path class="cls-1" d="M121.25,118.93a14.24,14.24,0,0,1-.1,9.42,24.66,24.66,0,0,1-6.08,9.61q-6.5,6.63-13.85,7.4a15.28,15.28,0,0,1-12.83-4.58A14.64,14.64,0,0,1,84.17,132l.1-.1a16,16,0,0,0,16.85,12.56q7.13-.65,13-6.69a26.65,26.65,0,0,0,6.21-9.37,15.06,15.06,0,0,0,.65-9.24Zm-5.53-7.48A13.55,13.55,0,0,1,120,123.07q-.7,6.72-6.92,13.06-5.86,6-12.31,6.65a13.67,13.67,0,0,1-11.42-4.21,15.08,15.08,0,0,1-4.54-9.37q-.87-8.11,6.24-15.38,6.09-6.21,12.77-6.85A14.43,14.43,0,0,1,115.72,111.45ZM114,113.22q-7-6.81-18.94,5.41-11.07,11.3-4.21,18a7.38,7.38,0,0,0,7.79,1.76q4.59-1.35,10.24-7.12,6.39-6.52,7.31-10.67A7.53,7.53,0,0,0,114,113.22Zm1.37,7.4-.14-.55a10.75,10.75,0,0,0-2.56-4.64q-5.4-5.3-15.83,5.34-7.62,7.77-6.75,13.59l-.39,0a11.22,11.22,0,0,1,.83-6.71A26.7,26.7,0,0,1,96,120.39q11.19-11.42,17.2-5.53Q115.88,117.55,115.36,120.62Z"/><path class="cls-1" d="M155.47,147.54l.39.77-19.71,25.83.43,7.08-11.72-8.95,0-1,10.91,8.31-.34-5.73Zm-.83-1.29L134.38,172.8l1,4.51-9.87-7.53,4.72-.16,15.38-20.16a7.38,7.38,0,0,1-3.2-1.35,4.66,4.66,0,0,1-1.94-4.2l.18.14a5.92,5.92,0,0,0,2.15,3.45,6.07,6.07,0,0,0,3.34,1.28l1.08-1.42a7.53,7.53,0,0,1-4.51-1.64,4.07,4.07,0,0,1-1.51-2,1.91,1.91,0,0,1,.23-1.89,1.29,1.29,0,0,1,2-.37,1,1,0,0,1,.3,1.6,1.59,1.59,0,0,1-.29.29,1.1,1.1,0,0,0-.15.14c-.17.25-.06.53.34.84a6,6,0,0,0,3.87,1.1,9,9,0,0,0,4.45-1.28Z"/></g></g></svg>